<mxfile host="app.diagrams.net" modified="2023-06-24T16:59:02.774Z" agent="Mozilla/5.0 (Macintosh; Intel Mac OS X 10_15_7) AppleWebKit/537.36 (KHTML, like Gecko) Chrome/114.0.0.0 Safari/537.36" etag="CnmEVyAQ4jg-2w45jCJL" version="21.5.0" type="device">
  <diagram id="vlqPjLjEMSHDjzIxNdZP" name="Page-1">
    <mxGraphModel dx="954" dy="534" grid="1" gridSize="10" guides="1" tooltips="1" connect="1" arrows="1" fold="1" page="1" pageScale="1" pageWidth="850" pageHeight="1100" math="0" shadow="0">
      <root>
        <mxCell id="0" />
        <mxCell id="1" parent="0" />
        <mxCell id="-_LstrtngAN215C4nDMc-10" value="User" style="swimlane;whiteSpace=wrap;movable=1;resizable=1;rotatable=1;deletable=1;editable=1;connectable=1;resizeHeight=1;resizeWidth=1;" parent="1" vertex="1">
          <mxGeometry x="164.5" y="128" width="280" height="1582" as="geometry">
            <mxRectangle x="164.5" y="128" width="200" height="30" as="alternateBounds" />
          </mxGeometry>
        </mxCell>
        <mxCell id="-_LstrtngAN215C4nDMc-22" style="edgeStyle=orthogonalEdgeStyle;rounded=0;orthogonalLoop=1;jettySize=auto;html=1;exitX=0.5;exitY=1;exitDx=0;exitDy=0;entryX=0.5;entryY=0;entryDx=0;entryDy=0;" parent="-_LstrtngAN215C4nDMc-10" source="-_LstrtngAN215C4nDMc-12" target="-_LstrtngAN215C4nDMc-19" edge="1">
          <mxGeometry relative="1" as="geometry" />
        </mxCell>
        <mxCell id="-_LstrtngAN215C4nDMc-12" value="" style="ellipse;shape=startState;fillColor=#000000;strokeColor=#ff0000;" parent="-_LstrtngAN215C4nDMc-10" vertex="1">
          <mxGeometry x="125" y="52" width="30" height="30" as="geometry" />
        </mxCell>
        <mxCell id="-_LstrtngAN215C4nDMc-19" value="Membuka Aplikasi Gasmaj" style="rounded=0;whiteSpace=wrap;html=1;" parent="-_LstrtngAN215C4nDMc-10" vertex="1">
          <mxGeometry x="80" y="142" width="120" height="60" as="geometry" />
        </mxCell>
        <mxCell id="Nl3Bn_BwVV1WLRQFOsHl-11" value="Memilih Metode Pembayaran" style="rounded=0;whiteSpace=wrap;html=1;" parent="-_LstrtngAN215C4nDMc-10" vertex="1">
          <mxGeometry x="80" y="372" width="120" height="60" as="geometry" />
        </mxCell>
        <mxCell id="Nl3Bn_BwVV1WLRQFOsHl-31" value="Melakukan Pembayaran" style="rounded=0;whiteSpace=wrap;html=1;" parent="-_LstrtngAN215C4nDMc-10" vertex="1">
          <mxGeometry x="65.5" y="922" width="120" height="60" as="geometry" />
        </mxCell>
        <mxCell id="-_LstrtngAN215C4nDMc-21" value="" style="ellipse;shape=endState;fillColor=#000000;strokeColor=#ff0000" parent="-_LstrtngAN215C4nDMc-10" vertex="1">
          <mxGeometry x="125" y="1512" width="30" height="30" as="geometry" />
        </mxCell>
        <mxCell id="Nl3Bn_BwVV1WLRQFOsHl-52" value="Mendapat Email Notifikasi Pembayaran" style="rounded=0;whiteSpace=wrap;html=1;" parent="-_LstrtngAN215C4nDMc-10" vertex="1">
          <mxGeometry x="80" y="1382" width="120" height="60" as="geometry" />
        </mxCell>
        <mxCell id="-_LstrtngAN215C4nDMc-15" value=":Gasmaj" style="swimlane;whiteSpace=wrap;movable=1;resizable=1;rotatable=1;deletable=1;editable=1;connectable=1;" parent="1" vertex="1">
          <mxGeometry x="444.5" y="128" width="280" height="1582" as="geometry" />
        </mxCell>
        <mxCell id="Nl3Bn_BwVV1WLRQFOsHl-6" style="edgeStyle=orthogonalEdgeStyle;rounded=0;orthogonalLoop=1;jettySize=auto;html=1;exitX=0.5;exitY=1;exitDx=0;exitDy=0;" parent="-_LstrtngAN215C4nDMc-15" source="-_LstrtngAN215C4nDMc-27" target="-_LstrtngAN215C4nDMc-26" edge="1">
          <mxGeometry relative="1" as="geometry" />
        </mxCell>
        <mxCell id="-_LstrtngAN215C4nDMc-27" value="Login pada Website GasMaj" style="rounded=0;whiteSpace=wrap;html=1;" parent="-_LstrtngAN215C4nDMc-15" vertex="1">
          <mxGeometry x="80" y="142" width="120" height="60" as="geometry" />
        </mxCell>
        <mxCell id="-_LstrtngAN215C4nDMc-26" value="Memilih item untuk dibeli&amp;nbsp;" style="rounded=0;whiteSpace=wrap;html=1;" parent="-_LstrtngAN215C4nDMc-15" vertex="1">
          <mxGeometry x="80" y="252" width="120" height="60" as="geometry" />
        </mxCell>
        <mxCell id="Nl3Bn_BwVV1WLRQFOsHl-50" style="edgeStyle=orthogonalEdgeStyle;rounded=0;orthogonalLoop=1;jettySize=auto;html=1;exitX=0.5;exitY=1;exitDx=0;exitDy=0;entryX=0.5;entryY=0;entryDx=0;entryDy=0;" parent="-_LstrtngAN215C4nDMc-15" source="Nl3Bn_BwVV1WLRQFOsHl-42" target="Nl3Bn_BwVV1WLRQFOsHl-49" edge="1">
          <mxGeometry relative="1" as="geometry" />
        </mxCell>
        <mxCell id="Nl3Bn_BwVV1WLRQFOsHl-42" value="Menerima Notifikasi" style="rounded=0;whiteSpace=wrap;html=1;" parent="-_LstrtngAN215C4nDMc-15" vertex="1">
          <mxGeometry x="81.5" y="1292" width="120" height="60" as="geometry" />
        </mxCell>
        <mxCell id="Nl3Bn_BwVV1WLRQFOsHl-49" value="Mengupdate Status Pesanan" style="rounded=0;whiteSpace=wrap;html=1;" parent="-_LstrtngAN215C4nDMc-15" vertex="1">
          <mxGeometry x="80" y="1382" width="120" height="60" as="geometry" />
        </mxCell>
        <mxCell id="-_LstrtngAN215C4nDMc-17" value=":App" style="swimlane;whiteSpace=wrap;movable=1;resizable=1;rotatable=1;deletable=1;editable=1;connectable=1;" parent="1" vertex="1">
          <mxGeometry x="724.5" y="128" width="280" height="1582" as="geometry" />
        </mxCell>
        <mxCell id="Nl3Bn_BwVV1WLRQFOsHl-10" style="edgeStyle=orthogonalEdgeStyle;rounded=0;orthogonalLoop=1;jettySize=auto;html=1;exitX=0.5;exitY=1;exitDx=0;exitDy=0;entryX=0.5;entryY=0;entryDx=0;entryDy=0;" parent="-_LstrtngAN215C4nDMc-17" source="Nl3Bn_BwVV1WLRQFOsHl-8" target="Nl3Bn_BwVV1WLRQFOsHl-9" edge="1">
          <mxGeometry relative="1" as="geometry" />
        </mxCell>
        <mxCell id="Nl3Bn_BwVV1WLRQFOsHl-8" value="Checkout" style="rounded=0;whiteSpace=wrap;html=1;" parent="-_LstrtngAN215C4nDMc-17" vertex="1">
          <mxGeometry x="80" y="252" width="120" height="60" as="geometry" />
        </mxCell>
        <mxCell id="Nl3Bn_BwVV1WLRQFOsHl-9" value="Menampilkan Metode Pembayaran" style="rounded=0;whiteSpace=wrap;html=1;" parent="-_LstrtngAN215C4nDMc-17" vertex="1">
          <mxGeometry x="80" y="372" width="120" height="60" as="geometry" />
        </mxCell>
        <mxCell id="Nl3Bn_BwVV1WLRQFOsHl-13" value="Request to Payment Gateway" style="rounded=0;whiteSpace=wrap;html=1;" parent="-_LstrtngAN215C4nDMc-17" vertex="1">
          <mxGeometry x="80" y="482" width="120" height="60" as="geometry" />
        </mxCell>
        <mxCell id="Nl3Bn_BwVV1WLRQFOsHl-23" style="edgeStyle=orthogonalEdgeStyle;rounded=0;orthogonalLoop=1;jettySize=auto;html=1;exitX=0;exitY=0.5;exitDx=0;exitDy=0;entryX=0;entryY=0.5;entryDx=0;entryDy=0;" parent="-_LstrtngAN215C4nDMc-17" source="Nl3Bn_BwVV1WLRQFOsHl-20" target="Nl3Bn_BwVV1WLRQFOsHl-22" edge="1">
          <mxGeometry relative="1" as="geometry" />
        </mxCell>
        <mxCell id="Nl3Bn_BwVV1WLRQFOsHl-20" value="Callback berupa URL ?" style="rhombus;whiteSpace=wrap;html=1;" parent="-_LstrtngAN215C4nDMc-17" vertex="1">
          <mxGeometry x="60" y="582" width="160" height="120" as="geometry" />
        </mxCell>
        <mxCell id="Nl3Bn_BwVV1WLRQFOsHl-22" value="Menampilkan Kode Pembayaran" style="rounded=0;whiteSpace=wrap;html=1;" parent="-_LstrtngAN215C4nDMc-17" vertex="1">
          <mxGeometry x="85.5" y="842" width="120" height="60" as="geometry" />
        </mxCell>
        <mxCell id="Nl3Bn_BwVV1WLRQFOsHl-28" value="Redirect ke URL Pembayaran" style="rounded=0;whiteSpace=wrap;html=1;" parent="-_LstrtngAN215C4nDMc-17" vertex="1">
          <mxGeometry x="85.5" y="752" width="120" height="60" as="geometry" />
        </mxCell>
        <mxCell id="Nl3Bn_BwVV1WLRQFOsHl-45" style="edgeStyle=orthogonalEdgeStyle;rounded=0;orthogonalLoop=1;jettySize=auto;html=1;exitX=0.5;exitY=1;exitDx=0;exitDy=0;entryX=0.5;entryY=0;entryDx=0;entryDy=0;" parent="-_LstrtngAN215C4nDMc-17" source="Nl3Bn_BwVV1WLRQFOsHl-35" target="Nl3Bn_BwVV1WLRQFOsHl-43" edge="1">
          <mxGeometry relative="1" as="geometry" />
        </mxCell>
        <mxCell id="Nl3Bn_BwVV1WLRQFOsHl-35" value="Menerima Notifikasi" style="rounded=0;whiteSpace=wrap;html=1;" parent="-_LstrtngAN215C4nDMc-17" vertex="1">
          <mxGeometry x="80" y="1082" width="120" height="60" as="geometry" />
        </mxCell>
        <mxCell id="Nl3Bn_BwVV1WLRQFOsHl-46" style="edgeStyle=orthogonalEdgeStyle;rounded=0;orthogonalLoop=1;jettySize=auto;html=1;exitX=0.5;exitY=1;exitDx=0;exitDy=0;entryX=0.5;entryY=0;entryDx=0;entryDy=0;" parent="-_LstrtngAN215C4nDMc-17" source="Nl3Bn_BwVV1WLRQFOsHl-43" target="Nl3Bn_BwVV1WLRQFOsHl-44" edge="1">
          <mxGeometry relative="1" as="geometry" />
        </mxCell>
        <mxCell id="Nl3Bn_BwVV1WLRQFOsHl-43" value="Mengupdate Status Pembayaran" style="rounded=0;whiteSpace=wrap;html=1;" parent="-_LstrtngAN215C4nDMc-17" vertex="1">
          <mxGeometry x="80" y="1182" width="120" height="60" as="geometry" />
        </mxCell>
        <mxCell id="Nl3Bn_BwVV1WLRQFOsHl-44" value="Mengirim Notifikasi Update Status Pembayaran" style="rounded=0;whiteSpace=wrap;html=1;" parent="-_LstrtngAN215C4nDMc-17" vertex="1">
          <mxGeometry x="80" y="1292" width="120" height="60" as="geometry" />
        </mxCell>
        <mxCell id="Nl3Bn_BwVV1WLRQFOsHl-56" value="Ya" style="text;html=1;strokeColor=none;fillColor=none;align=center;verticalAlign=middle;whiteSpace=wrap;rounded=0;" parent="-_LstrtngAN215C4nDMc-17" vertex="1">
          <mxGeometry x="130.5" y="712" width="60" height="30" as="geometry" />
        </mxCell>
        <mxCell id="Nl3Bn_BwVV1WLRQFOsHl-57" value="Tidak" style="text;html=1;strokeColor=none;fillColor=none;align=center;verticalAlign=middle;whiteSpace=wrap;rounded=0;" parent="-_LstrtngAN215C4nDMc-17" vertex="1">
          <mxGeometry x="-10.5" y="767" width="60" height="30" as="geometry" />
        </mxCell>
        <mxCell id="-_LstrtngAN215C4nDMc-45" style="edgeStyle=orthogonalEdgeStyle;rounded=0;orthogonalLoop=1;jettySize=auto;html=1;exitX=1;exitY=0.5;exitDx=0;exitDy=0;entryX=0;entryY=0.5;entryDx=0;entryDy=0;" parent="1" source="-_LstrtngAN215C4nDMc-19" target="-_LstrtngAN215C4nDMc-27" edge="1">
          <mxGeometry relative="1" as="geometry" />
        </mxCell>
        <mxCell id="Nl3Bn_BwVV1WLRQFOsHl-1" value="Payment Gateway" style="swimlane;whiteSpace=wrap;movable=1;resizable=1;rotatable=1;deletable=1;editable=1;connectable=1;" parent="1" vertex="1">
          <mxGeometry x="1004.5" y="128" width="280" height="1582" as="geometry" />
        </mxCell>
        <mxCell id="Nl3Bn_BwVV1WLRQFOsHl-17" style="edgeStyle=orthogonalEdgeStyle;rounded=0;orthogonalLoop=1;jettySize=auto;html=1;exitX=0.5;exitY=1;exitDx=0;exitDy=0;entryX=0.5;entryY=0;entryDx=0;entryDy=0;" parent="Nl3Bn_BwVV1WLRQFOsHl-1" source="Nl3Bn_BwVV1WLRQFOsHl-3" target="Nl3Bn_BwVV1WLRQFOsHl-16" edge="1">
          <mxGeometry relative="1" as="geometry" />
        </mxCell>
        <mxCell id="Nl3Bn_BwVV1WLRQFOsHl-3" value="Menerima Request" style="rounded=0;whiteSpace=wrap;html=1;" parent="Nl3Bn_BwVV1WLRQFOsHl-1" vertex="1">
          <mxGeometry x="80" y="482" width="120" height="60" as="geometry" />
        </mxCell>
        <mxCell id="Nl3Bn_BwVV1WLRQFOsHl-16" value="Mengirim Callback URL / Kode Pembayaran" style="rounded=0;whiteSpace=wrap;html=1;" parent="Nl3Bn_BwVV1WLRQFOsHl-1" vertex="1">
          <mxGeometry x="80" y="612" width="120" height="60" as="geometry" />
        </mxCell>
        <mxCell id="Nl3Bn_BwVV1WLRQFOsHl-38" style="edgeStyle=orthogonalEdgeStyle;rounded=0;orthogonalLoop=1;jettySize=auto;html=1;exitX=0.5;exitY=1;exitDx=0;exitDy=0;entryX=0.5;entryY=0;entryDx=0;entryDy=0;" parent="Nl3Bn_BwVV1WLRQFOsHl-1" source="Nl3Bn_BwVV1WLRQFOsHl-33" target="Nl3Bn_BwVV1WLRQFOsHl-37" edge="1">
          <mxGeometry relative="1" as="geometry" />
        </mxCell>
        <mxCell id="Nl3Bn_BwVV1WLRQFOsHl-33" value="Menerima Pembayaran" style="rounded=0;whiteSpace=wrap;html=1;" parent="Nl3Bn_BwVV1WLRQFOsHl-1" vertex="1">
          <mxGeometry x="80" y="992" width="120" height="60" as="geometry" />
        </mxCell>
        <mxCell id="Nl3Bn_BwVV1WLRQFOsHl-37" value="Mengirim Notifikasi Pembayaran" style="rounded=0;whiteSpace=wrap;html=1;" parent="Nl3Bn_BwVV1WLRQFOsHl-1" vertex="1">
          <mxGeometry x="80" y="1082" width="120" height="60" as="geometry" />
        </mxCell>
        <mxCell id="Nl3Bn_BwVV1WLRQFOsHl-7" style="edgeStyle=orthogonalEdgeStyle;rounded=0;orthogonalLoop=1;jettySize=auto;html=1;exitX=1;exitY=0.5;exitDx=0;exitDy=0;entryX=0;entryY=0.5;entryDx=0;entryDy=0;" parent="1" source="-_LstrtngAN215C4nDMc-26" target="Nl3Bn_BwVV1WLRQFOsHl-8" edge="1">
          <mxGeometry relative="1" as="geometry">
            <mxPoint x="790" y="409.57894736842115" as="targetPoint" />
          </mxGeometry>
        </mxCell>
        <mxCell id="Nl3Bn_BwVV1WLRQFOsHl-12" style="edgeStyle=orthogonalEdgeStyle;rounded=0;orthogonalLoop=1;jettySize=auto;html=1;exitX=0;exitY=0.5;exitDx=0;exitDy=0;entryX=1;entryY=0.5;entryDx=0;entryDy=0;" parent="1" source="Nl3Bn_BwVV1WLRQFOsHl-9" target="Nl3Bn_BwVV1WLRQFOsHl-11" edge="1">
          <mxGeometry relative="1" as="geometry" />
        </mxCell>
        <mxCell id="Nl3Bn_BwVV1WLRQFOsHl-14" style="edgeStyle=orthogonalEdgeStyle;rounded=0;orthogonalLoop=1;jettySize=auto;html=1;exitX=0.5;exitY=1;exitDx=0;exitDy=0;entryX=0;entryY=0.5;entryDx=0;entryDy=0;" parent="1" source="Nl3Bn_BwVV1WLRQFOsHl-11" target="Nl3Bn_BwVV1WLRQFOsHl-13" edge="1">
          <mxGeometry relative="1" as="geometry" />
        </mxCell>
        <mxCell id="Nl3Bn_BwVV1WLRQFOsHl-15" style="edgeStyle=orthogonalEdgeStyle;rounded=0;orthogonalLoop=1;jettySize=auto;html=1;exitX=1;exitY=0.5;exitDx=0;exitDy=0;entryX=0;entryY=0.5;entryDx=0;entryDy=0;" parent="1" source="Nl3Bn_BwVV1WLRQFOsHl-13" target="Nl3Bn_BwVV1WLRQFOsHl-3" edge="1">
          <mxGeometry relative="1" as="geometry" />
        </mxCell>
        <mxCell id="Nl3Bn_BwVV1WLRQFOsHl-24" style="edgeStyle=orthogonalEdgeStyle;rounded=0;orthogonalLoop=1;jettySize=auto;html=1;exitX=0;exitY=0.5;exitDx=0;exitDy=0;entryX=1;entryY=0.5;entryDx=0;entryDy=0;" parent="1" source="Nl3Bn_BwVV1WLRQFOsHl-16" target="Nl3Bn_BwVV1WLRQFOsHl-20" edge="1">
          <mxGeometry relative="1" as="geometry" />
        </mxCell>
        <mxCell id="Nl3Bn_BwVV1WLRQFOsHl-27" style="edgeStyle=orthogonalEdgeStyle;rounded=0;orthogonalLoop=1;jettySize=auto;html=1;exitX=0.5;exitY=1;exitDx=0;exitDy=0;" parent="1" source="Nl3Bn_BwVV1WLRQFOsHl-20" edge="1">
          <mxGeometry relative="1" as="geometry">
            <mxPoint x="865" y="880" as="targetPoint" />
          </mxGeometry>
        </mxCell>
        <mxCell id="Nl3Bn_BwVV1WLRQFOsHl-30" style="edgeStyle=orthogonalEdgeStyle;rounded=0;orthogonalLoop=1;jettySize=auto;html=1;exitX=1;exitY=0.5;exitDx=0;exitDy=0;entryX=1;entryY=0.5;entryDx=0;entryDy=0;" parent="1" source="Nl3Bn_BwVV1WLRQFOsHl-28" target="Nl3Bn_BwVV1WLRQFOsHl-31" edge="1">
          <mxGeometry relative="1" as="geometry">
            <mxPoint x="960" y="1151.25" as="targetPoint" />
          </mxGeometry>
        </mxCell>
        <mxCell id="Nl3Bn_BwVV1WLRQFOsHl-32" style="edgeStyle=orthogonalEdgeStyle;rounded=0;orthogonalLoop=1;jettySize=auto;html=1;exitX=1;exitY=0.5;exitDx=0;exitDy=0;" parent="1" source="Nl3Bn_BwVV1WLRQFOsHl-22" edge="1">
          <mxGeometry relative="1" as="geometry">
            <mxPoint x="950" y="999.5" as="targetPoint" />
          </mxGeometry>
        </mxCell>
        <mxCell id="Nl3Bn_BwVV1WLRQFOsHl-34" style="edgeStyle=orthogonalEdgeStyle;rounded=0;orthogonalLoop=1;jettySize=auto;html=1;exitX=0.5;exitY=1;exitDx=0;exitDy=0;entryX=0;entryY=0.5;entryDx=0;entryDy=0;" parent="1" source="Nl3Bn_BwVV1WLRQFOsHl-31" target="Nl3Bn_BwVV1WLRQFOsHl-33" edge="1">
          <mxGeometry relative="1" as="geometry" />
        </mxCell>
        <mxCell id="Nl3Bn_BwVV1WLRQFOsHl-39" style="edgeStyle=orthogonalEdgeStyle;rounded=0;orthogonalLoop=1;jettySize=auto;html=1;exitX=0;exitY=0.5;exitDx=0;exitDy=0;entryX=1;entryY=0.5;entryDx=0;entryDy=0;" parent="1" source="Nl3Bn_BwVV1WLRQFOsHl-37" target="Nl3Bn_BwVV1WLRQFOsHl-35" edge="1">
          <mxGeometry relative="1" as="geometry" />
        </mxCell>
        <mxCell id="Nl3Bn_BwVV1WLRQFOsHl-48" style="edgeStyle=orthogonalEdgeStyle;rounded=0;orthogonalLoop=1;jettySize=auto;html=1;exitX=0;exitY=0.5;exitDx=0;exitDy=0;entryX=1;entryY=0.5;entryDx=0;entryDy=0;" parent="1" source="Nl3Bn_BwVV1WLRQFOsHl-44" target="Nl3Bn_BwVV1WLRQFOsHl-42" edge="1">
          <mxGeometry relative="1" as="geometry" />
        </mxCell>
        <mxCell id="Nl3Bn_BwVV1WLRQFOsHl-53" style="edgeStyle=orthogonalEdgeStyle;rounded=0;orthogonalLoop=1;jettySize=auto;html=1;exitX=0;exitY=0.5;exitDx=0;exitDy=0;entryX=1;entryY=0.5;entryDx=0;entryDy=0;" parent="1" source="Nl3Bn_BwVV1WLRQFOsHl-49" target="Nl3Bn_BwVV1WLRQFOsHl-52" edge="1">
          <mxGeometry relative="1" as="geometry" />
        </mxCell>
        <mxCell id="Nl3Bn_BwVV1WLRQFOsHl-54" style="edgeStyle=orthogonalEdgeStyle;rounded=0;orthogonalLoop=1;jettySize=auto;html=1;exitX=0.5;exitY=1;exitDx=0;exitDy=0;" parent="1" source="Nl3Bn_BwVV1WLRQFOsHl-52" edge="1">
          <mxGeometry relative="1" as="geometry">
            <mxPoint x="304.5" y="1640" as="targetPoint" />
          </mxGeometry>
        </mxCell>
      </root>
    </mxGraphModel>
  </diagram>
</mxfile>
